<?xml version="1.0" encoding="utf-8"?>
<svg xmlns="http://www.w3.org/2000/svg"
	xmlns:xlink="http://www.w3.org/1999/xlink"
	width="1416px" height="1416px" viewBox="0 0 1416 1416">
<path fillRule="evenodd" d="M 1194 708C 1194 769.3 1144.3 819 1083 819 1021.7 819 972 769.3 972 708 972 646.7 1021.7 597 1083 597 1144.3 597 1194 646.7 1194 708ZM 222 708C 222 646.7 271.7 597 333 597 394.3 597 444 646.7 444 708 444 769.3 394.3 819 333 819 271.7 819 222 769.3 222 708ZM 801.48 1409.87C 801.48 1409.87 937.01 841.67 937.01 841.67 962.82 869.89 997.07 890.95 1037.08 900.49 1143.43 925.85 1250.21 860.21 1275.57 753.87 1300.93 647.54 1235.28 540.79 1128.92 515.43 1022.57 490.07 915.79 555.72 890.43 662.05 890.43 662.05 710.59 1415.98 710.59 1415.98 709.73 1415.99 708.87 1416 708 1416 316.98 1416-0 1099.02-0 708-0 348.68 267.67 51.9 614.49 6.13 614.49 6.13 479.01 574.24 479.01 574.24 453.19 546.01 418.94 524.94 378.93 515.4 272.56 490.03 165.76 555.7 140.4 662.07 115.03 768.44 180.7 875.23 287.07 900.6 393.44 925.97 500.23 860.3 525.6 753.93 525.6 753.93 705.38 0.02 705.38 0.02 706.26 0.01 707.13-0 708-0 1099.02-0 1416 316.98 1416 708 1416 1067.33 1148.31 1364.12 801.48 1409.87ZM 708 597C 646.7 597 597 646.7 597 708 597 769.3 646.7 819 708 819 769.3 819 819 769.3 819 708 819 646.7 769.3 597 708 597Z" fill="rgb(0,229,117)"/></svg>